<?xml version="1.0" encoding="UTF-8" standalone="no"?>
<!-- Created with Inkscape (http://www.inkscape.org/) -->

<svg
   width="210mm"
   height="297mm"
   viewBox="0 0 210 297"
   version="1.1"
   id="svg1"
   xmlns="http://www.w3.org/2000/svg"
   xmlns:svg="http://www.w3.org/2000/svg">
  <defs
     id="defs1" />
  <g
     id="layer1">
    <path
       id="rect12"
       style="fill:#803300;stroke-width:2.051;stroke-opacity:0.421277"
       d="M 71.137733,61.652699 H 125.08384 V 130.41916 H 71.137733 Z" />
    <path
       id="path6"
       style="fill:#800080;stroke-width:1.72399;stroke-opacity:0.421277"
       d="M 98.407172,178.14072 A 10.374251,27.565868 0 0 1 88.032921,205.70658 10.374251,27.565868 0 0 1 77.658669,178.14072 10.374251,27.565868 0 0 1 88.032921,150.57485 10.374251,27.565868 0 0 1 98.407172,178.14072 Z" />
    <path
       id="ellipse8"
       style="fill:#800080;stroke-width:1.75782;stroke-opacity:0.421277"
       d="m 119.15569,177.84435 a 10.670659,27.862274 0 0 1 -10.67066,27.86227 10.670659,27.862274 0 0 1 -10.670658,-27.86227 10.670659,27.862274 0 0 1 10.670658,-27.86228 10.670659,27.862274 0 0 1 10.67066,27.86228 z" />
    <path
       id="path5"
       style="fill:#800080;stroke-width:1.5875;stroke-opacity:0.421277"
       d="M 124.49101,117.37726 A 25.194611,46.239521 0 0 1 99.296402,163.61678 25.194611,46.239521 0 0 1 74.101791,117.37726 25.194611,46.239521 0 0 1 99.296402,71.137737 25.194611,46.239521 0 0 1 124.49101,117.37726 Z" />
    <path
       id="path2"
       style="fill:#ffb380;stroke-width:1.5875;stroke-opacity:0.421277"
       d="M 125.08383,56.020954 A 26.973053,26.973053 0 0 1 98.110779,82.994007 26.973053,26.973053 0 0 1 71.137726,56.020954 26.973053,26.973053 0 0 1 98.110779,29.047901 26.973053,26.973053 0 0 1 125.08383,56.020954 Z" />
    <path
       id="path3"
       style="fill:#f9f9f9;stroke-width:1.5875;stroke-opacity:0.421277"
       d="m 93.664675,58.985027 a 5.3353291,5.3353291 0 0 1 -5.335329,5.335329 5.3353291,5.3353291 0 0 1 -5.335329,-5.335329 5.3353291,5.3353291 0 0 1 5.335329,-5.335329 5.3353291,5.3353291 0 0 1 5.335329,5.335329 z" />
    <path
       id="circle3"
       style="fill:#f9f9f9;stroke-width:1.5875;stroke-opacity:0.421277"
       d="m 113.22755,58.985027 a 5.3353291,5.3353291 0 0 1 -5.33533,5.335329 5.3353291,5.3353291 0 0 1 -5.33533,-5.335329 5.3353291,5.3353291 0 0 1 5.33533,-5.335329 5.3353291,5.3353291 0 0 1 5.33533,5.335329 z" />
    <path
       id="path4"
       style="fill:#00ff00;stroke-width:1.67337;stroke-opacity:0.421277"
       d="m 92.479058,59.281433 a 2.6676645,2.9640718 0 0 1 -2.667664,2.964072 2.6676645,2.9640718 0 0 1 -2.667665,-2.964072 2.6676645,2.9640718 0 0 1 2.667665,-2.964072 2.6676645,2.9640718 0 0 1 2.667664,2.964072 z" />
    <path
       id="circle4"
       style="fill:#00ff00;stroke-width:1.5875;stroke-opacity:0.421277"
       d="m 109.67066,59.577839 a 2.6676645,2.6676645 0 0 1 -2.66766,2.667664 2.6676645,2.6676645 0 0 1 -2.66767,-2.667664 2.6676645,2.6676645 0 0 1 2.66767,-2.667665 2.6676645,2.6676645 0 0 1 2.66766,2.667665 z" />
    <path
       id="path8"
       style="fill:#1a1a1a;stroke-width:1.5875;stroke-opacity:0.421277"
       d="m 93.071855,208.07784 a 9.1886225,6.5209579 0 0 1 -9.188623,6.52095 9.1886225,6.5209579 0 0 1 -9.188622,-6.52095 9.1886225,6.5209579 0 0 1 9.188622,-6.52096 9.1886225,6.5209579 0 0 1 9.188623,6.52096 z" />
    <path
       id="ellipse9"
       style="fill:#1a1a1a;stroke-width:1.5875;stroke-opacity:0.421277"
       d="m 122.11975,208.07784 a 9.1886225,6.5209579 0 0 1 -9.18862,6.52095 9.1886225,6.5209579 0 0 1 -9.18862,-6.52095 9.1886225,6.5209579 0 0 1 9.18862,-6.52096 9.1886225,6.5209579 0 0 1 9.18862,6.52096 z" />
    <path
       id="path9"
       style="fill:#800080;stroke-width:1.73542;stroke-opacity:0.421277"
       transform="matrix(0.79184894,0.610717,-0.62124725,0.78361461,0,0)"
       d="m 125.8835,40.932991 a 8.0494671,20.217403 0 0 1 -8.04947,20.217403 8.0494671,20.217403 0 0 1 -8.04947,-20.217403 8.0494671,20.217403 0 0 1 8.04947,-20.217403 8.0494671,20.217403 0 0 1 8.04947,20.217403 z" />
    <path
       id="ellipse10"
       style="fill:#800080;stroke-width:1.66436;stroke-opacity:0.421277"
       transform="matrix(-0.77737366,0.6290391,0.60287322,0.797837,0,0)"
       d="m 31.202993,141.94392 a 7.6753635,19.50218 0 0 1 -7.675363,19.50218 7.6753635,19.50218 0 0 1 -7.675364,-19.50218 7.6753635,19.50218 0 0 1 7.675364,-19.50218 7.6753635,19.50218 0 0 1 7.675363,19.50218 z" />
    <path
       id="path10"
       style="fill:#1a1a1a;stroke-width:1.5875;stroke-opacity:0.421277"
       d="m 88.922155,139.01497 a 8.595808,8.595808 0 0 1 -8.595808,8.59581 8.595808,8.595808 0 0 1 -8.595808,-8.59581 8.595808,8.595808 0 0 1 8.595808,-8.59581 8.595808,8.595808 0 0 1 8.595808,8.59581 z" />
    <path
       id="ellipse11"
       style="fill:#800080;stroke-width:1.80754;stroke-opacity:0.421277"
       transform="matrix(-0.88172797,0.47175818,0.75256382,0.65851932,0,0)"
       d="m -3.3579521,159.90773 a 8.7446518,20.188972 0 0 1 -8.7446519,20.18897 8.7446518,20.188972 0 0 1 -8.744652,-20.18897 8.7446518,20.188972 0 0 1 8.744652,-20.18897 8.7446518,20.188972 0 0 1 8.7446519,20.18897 z" />
    <path
       id="ellipse12"
       style="fill:#800080;stroke-width:1.6313;stroke-opacity:0.421277"
       transform="matrix(0.77628567,0.63038128,-0.60151759,0.79885956,0,0)"
       d="m 190.79953,12.322614 a 7.5196724,19.122847 0 0 1 -7.51967,19.122846 7.5196724,19.122847 0 0 1 -7.51967,-19.122846 7.5196724,19.122847 0 0 1 7.51967,-19.1228469 7.5196724,19.122847 0 0 1 7.51967,19.1228469 z" />
    <path
       id="circle12"
       style="fill:#1a1a1a;stroke-width:1.5875;stroke-opacity:0.421277"
       d="m 127.45509,134.86526 a 8.595808,8.595808 0 0 1 -8.59581,8.59581 8.595808,8.595808 0 0 1 -8.5958,-8.59581 8.595808,8.595808 0 0 1 8.5958,-8.5958 8.595808,8.595808 0 0 1 8.59581,8.5958 z" />
    <path
       id="path13"
       style="fill:#803300;stroke-width:2.43592;stroke-opacity:0.421277"
       transform="matrix(0.79509012,-0.6064913,-0.05229305,0.99863178,0,0)"
       d="M 130.58594,113.26024 A 18.380865,14.889034 0 0 1 112.20508,128.14927 18.380865,14.889034 0 0 1 93.824213,113.26024 18.380865,14.889034 0 0 1 112.20508,98.371204 18.380865,14.889034 0 0 1 130.58594,113.26024 Z" />
    <path
       id="ellipse13"
       style="fill:#803300;stroke-width:2.61198;stroke-opacity:0.421277"
       transform="matrix(-0.35674237,-0.9342028,0.9352993,0.35385763,0,0)"
       d="M 14.685549,118.52106 A 18.019192,17.462616 0 0 1 -3.3336425,135.98367 18.019192,17.462616 0 0 1 -21.352834,118.52106 18.019192,17.462616 0 0 1 -3.3336425,101.05844 18.019192,17.462616 0 0 1 14.685549,118.52106 Z" />
    <path
       id="path14"
       style="fill:#ff5555;stroke-width:1.5875;stroke-opacity:0.421277"
       d="m 99.592813,72.916168 a 5.3353291,2.3712573 0 0 1 -5.335329,2.371258 5.3353291,2.3712573 0 0 1 -5.335329,-2.371258 5.3353291,2.3712573 0 0 1 5.335329,-2.371257 5.3353291,2.3712573 0 0 1 5.335329,2.371257 z" />
    <path
       style="fill:#ff9955;stroke:none;stroke-width:1.5875;stroke-dasharray:none;stroke-opacity:0.421277"
       d="m 96.628743,60.467065 c -0.640742,2.562961 -0.592815,1.556512 -0.592815,2.964072 0,0.24476 -1.447837,2.701864 -0.592815,3.556886 0.279455,0.279456 0.790419,0 1.18563,0 0.753985,0 4.262597,0.479915 4.742517,0 0.35183,-0.351838 -0.48573,-5.228238 -0.59282,-5.335331 -0.790418,-0.790419 -0.59281,0.988026 -0.59281,-0.592812"
       id="path15" />
    <path
       id="path16"
       style="fill:#ffaaaa;stroke-width:1.5875;stroke-opacity:0.421277"
       d="m 116.78443,68.470055 a 3.260479,3.260479 0 0 1 -3.26048,3.260479 3.260479,3.260479 0 0 1 -3.26048,-3.260479 3.260479,3.260479 0 0 1 3.26048,-3.260479 3.260479,3.260479 0 0 1 3.26048,3.260479 z" />
    <path
       id="circle16"
       style="fill:#ffaaaa;stroke-width:1.5875;stroke-opacity:0.421277"
       d="m 85.95808,68.470055 a 3.260479,3.260479 0 0 1 -3.260479,3.260479 3.260479,3.260479 0 0 1 -3.260479,-3.260479 3.260479,3.260479 0 0 1 3.260479,-3.260479 3.260479,3.260479 0 0 1 3.260479,3.260479 z" />
    <path
       id="rect16"
       style="fill:#1a1a1a;stroke-width:1.63;stroke-opacity:0.421277"
       d="m 97.221558,82.994003 h 2.964072 v 80.622757 h -2.964072 z" />
  </g>
</svg>
